<svg id="visual" viewBox="0 0 1300 250" width="1300" height="250" xmlns="http://www.w3.org/2000/svg" xmlns:xlink="http://www.w3.org/1999/xlink" version="1.1"><rect width="1300" height="250" fill="#001829"></rect><g><g transform="translate(1062 192)"><path d="M0 -26.9L26.9 0L0 26.9L-26.9 0Z" stroke="#297EA6" fill="none" stroke-width="2"></path></g><g transform="translate(481 5)"><path d="M0 -5L5 0L0 5L-5 0Z" stroke="#297EA6" fill="none" stroke-width="2"></path></g><g transform="translate(246 224)"><path d="M0 -10L10 0L0 10L-10 0Z" stroke="#297EA6" fill="none" stroke-width="2"></path></g><g transform="translate(724 10)"><path d="M0 -6L6 0L0 6L-6 0Z" stroke="#297EA6" fill="none" stroke-width="2"></path></g><g transform="translate(27 231)"><path d="M0 -19L19 0L0 19L-19 0Z" stroke="#297EA6" fill="none" stroke-width="2"></path></g><g transform="translate(5 39)"><path d="M0 -20L20 0L0 20L-20 0Z" stroke="#297EA6" fill="none" stroke-width="2"></path></g><g transform="translate(1082 8)"><path d="M0 -20L20 0L0 20L-20 0Z" stroke="#297EA6" fill="none" stroke-width="2"></path></g><g transform="translate(695 160)"><path d="M0 -10L10 0L0 10L-10 0Z" stroke="#297EA6" fill="none" stroke-width="2"></path></g><g transform="translate(349 96)"><path d="M0 -11L11 0L0 11L-11 0Z" stroke="#297EA6" fill="none" stroke-width="2"></path></g><g transform="translate(393 65)"><path d="M0 -19L19 0L0 19L-19 0Z" stroke="#297EA6" fill="none" stroke-width="2"></path></g><g transform="translate(875 112)"><path d="M0 -5L5 0L0 5L-5 0Z" stroke="#297EA6" fill="none" stroke-width="2"></path></g><g transform="translate(1156 102)"><path d="M0 -18L18 0L0 18L-18 0Z" stroke="#297EA6" fill="none" stroke-width="2"></path></g><g transform="translate(201 144)"><path d="M0 -23L23 0L0 23L-23 0Z" stroke="#297EA6" fill="none" stroke-width="2"></path></g><g transform="translate(941 99)"><path d="M0 -13L13 0L0 13L-13 0Z" stroke="#297EA6" fill="none" stroke-width="2"></path></g><g transform="translate(610 53)"><path d="M0 -21L21 0L0 21L-21 0Z" stroke="#297EA6" fill="none" stroke-width="2"></path></g><g transform="translate(1041 246)"><path d="M0 -24L24 0L0 24L-24 0Z" stroke="#297EA6" fill="none" stroke-width="2"></path></g><g transform="translate(825 78)"><path d="M0 -7L7 0L0 7L-7 0Z" stroke="#297EA6" fill="none" stroke-width="2"></path></g><g transform="translate(1256 19)"><path d="M0 -8L8 0L0 8L-8 0Z" stroke="#297EA6" fill="none" stroke-width="2"></path></g></g></svg>